<svg width="43.392" height="11.906" xmlns="http://www.w3.org/2000/svg">
  <g class="layer">
    <path
      d="m6.002 4.618.19-.798c.122-.518.393-1.08 1.031-1.127.606-.045 1.407.016 1.407.016l.654-2.731s-.934-.075-2.47-.032c-2.487.064-3.14 1.603-3.338 2.01-.154.325-.587 1.979-.76 2.657L.769 4.607.134 7.274h7.573l.617-2.653-2.322-.003m-4.34 5.01c-.446.611-.768 2.058-.768 2.058l3.385.018 1.045-3.99c-2.451.26-3.355 1.49-3.661 1.914m8.033-5.01-1.673 7.036h3.401L13.1 4.618H9.696M26.98 1.815l-2.138 9.839h3.401l2.14-9.839H26.98M11.802 3.331c1.308 0 2.226-.803 2.258-1.832C14.086.526 13.225.06 12.307.06c-1.734 0-2.199 1.064-2.239 1.864-.037.702.426 1.407 1.734 1.407m11.57 1.327c-.62-.38-1.444-.532-2.646-.614-.925-.067-2.165-.016-2.85.047-1.915.187-2.734.974-3.096 1.367-.463.505-.74 1.192-.933 2.042l-.981 4.154h3.32l.876-3.648c.109-.362.29-1.133 1.38-1.144 1.18-.01.997-.016 1.478-.008.364.008 1.378-.021 1.114 1.088l-.877 3.712h3.324l.97-4.042c.295-1.231.133-2.212-1.08-2.954m14.19 3.04c-.067.781-.588 1.318-1.7 1.467a6.366 6.366 0 0 1-1.653-.013c-.42-.07-1.13-.333-1.035-1.082.117-.878.883-1.213 1.665-1.349a5.703 5.703 0 0 1 1.497-.026c.678.087 1.279.38 1.226 1.002zm1.433-3.404c-.763-.274-1.678-.38-2.83-.38-1.951 0-3.398.47-4.344 1.161-1.625 1.189-1.939 2.984-1.939 3.837 0 .886.048 2.186 2.103 2.774.708.205 1.665.287 2.926.287 1.255 0 2.305-.213 3.13-.588 2.286-1.04 3.017-3.196 3.017-4.523 0-1.22-.765-2.103-2.063-2.568m3.201.611a.907.907 0 0 1-.904-.904.907.907 0 0 1 .904-.907.907.907 0 0 1 .905.907.907.907 0 0 1-.905.904zm0-1.97c-.587 0-1.063.478-1.063 1.066a1.066 1.066 0 0 0 1.063 1.064A1.066 1.066 0 0 0 43.26 4a1.066 1.066 0 0 0-1.064-1.066"
      fill="currentColor" />
    <path
      d="M42.246 3.982h-.231v-.321h.231c.064 0 .106.016.133.045a.178.178 0 0 1 .037.114.179.179 0 0 1-.037.115c-.027.032-.07.047-.133.047zm.157.17a.287.287 0 0 0 .162-.127.461.461 0 0 0 .03-.346.298.298 0 0 0-.07-.114.32.32 0 0 0-.114-.074.487.487 0 0 0-.168-.027h-.428V4.54h.2v-.364h.186l.215.364h.237l-.25-.386v-.002"
      fill="currentColor" />
  </g>
</svg>